<svg width="42" height="40" viewBox="0 0 42 40" fill="none" xmlns="http://www.w3.org/2000/svg">
<path d="M20.0489 0.927052C20.3483 0.00574108 21.6517 0.0057401 21.9511 0.927051L26.1638 13.8926C26.2977 14.3046 26.6817 14.5836 27.1149 14.5836H40.7477C41.7164 14.5836 42.1192 15.8232 41.3355 16.3926L30.3063 24.4058C29.9558 24.6604 29.8091 25.1118 29.943 25.5238L34.1558 38.4894C34.4551 39.4107 33.4007 40.1768 32.6169 39.6074L21.5878 31.5942C21.2373 31.3396 20.7627 31.3396 20.4122 31.5942L9.38305 39.6074C8.59934 40.1768 7.54486 39.4107 7.84421 38.4894L12.057 25.5238C12.1908 25.1118 12.0442 24.6604 11.6937 24.4058L0.664543 16.3926C-0.11917 15.8232 0.283604 14.5836 1.25233 14.5836H14.8851C15.3183 14.5836 15.7023 14.3046 15.8362 13.8926L20.0489 0.927052Z" fill="#DED500"/>
</svg>
